<svg width="36" height="36" viewBox="0 0 36 36" fill="none" xmlns="http://www.w3.org/2000/svg">
    <path d="M27.4634 9.05058C24.807 4.5034 21.4465 2 18 2C14.5535 2 11.193 4.5034 8.53658 9.05058C6.38784 12.7264 5 17.3546 5 20.8418C5 28.097 10.8315 34 18 34C25.1685 34 31 28.097 31 20.8418C31 17.3546 29.6122 12.7252 27.4634 9.0494V9.05058ZM8.53424 20.8418C8.53424 17.9929 9.75774 13.9858 11.5784 10.8708C11.5784 10.8696 11.5801 10.8678 11.5801 10.8672C11.6544 10.74 11.8421 10.7643 11.8837 10.9057C12.6106 13.3907 14.9915 15.147 17.5058 17.0003C20.009 18.8471 22.5981 20.756 23.1525 23.2304C23.5888 25.1778 23.1794 27.0725 21.998 28.5667C21.9928 28.5738 21.9875 28.5803 21.9816 28.5874C21.0886 29.7078 19.7475 30.3685 18.3258 30.4176C18.2176 30.4212 18.1076 30.423 17.9982 30.423C12.7791 30.423 8.53248 26.1248 8.53248 20.8418H8.53365H8.53424ZM26.2867 25.4688C26.1949 25.6362 25.9434 25.5599 25.9563 25.3688C26.0165 24.4768 25.9457 23.5599 25.7381 22.6365C24.9632 19.1795 21.8308 16.8702 19.0673 14.8317C16.8432 13.1914 14.7412 11.6415 14.3745 9.94321C14.3716 9.93138 14.3693 9.91955 14.3675 9.9089C13.9909 8.10056 15.0752 6.32121 16.8174 5.76812C17.2169 5.64094 17.6128 5.57587 18.0012 5.57587C20.1166 5.57587 22.4571 7.50547 24.4228 10.8702C26.2434 13.9852 27.4675 17.9929 27.4675 20.8412C27.4675 22.5188 27.0388 24.0958 26.2879 25.4682H26.2867V25.4688Z" fill="#FF6915"/>
</svg>
