<svg width="167" height="36" viewBox="0 0 167 36" fill="none" xmlns="http://www.w3.org/2000/svg">
    <path
            d="M45.328 27.6613C42.4168 27.6613 39.4794 26.7958 37.8533 25.5369L39.2958 22.3372C40.8432 23.465 43.1512 24.2518 45.3543 24.2518C47.8721 24.2518 48.8949 23.4125 48.8949 22.2847C48.8949 18.849 38.2205 21.2094 38.2205 14.3903C38.2205 11.2693 40.7383 8.6728 45.9575 8.6728C48.2655 8.6728 50.6259 9.22357 52.3307 10.2989L51.0193 13.5248C49.3146 12.5544 47.5573 12.0823 45.9313 12.0823C43.4134 12.0823 42.443 13.0265 42.443 14.1805C42.443 17.5638 53.1175 15.2296 53.1175 21.97C53.1175 25.0386 50.5735 27.6613 45.328 27.6613Z"
            fill="#303030"
    />
    <path
            d="M62.5513 27.5564C57.9616 27.5564 54.6832 24.5403 54.6832 20.2915C54.6832 16.0427 57.9616 13.0265 62.5513 13.0265C65.515 13.0265 67.8492 14.3117 68.8721 16.6197L65.6986 18.3244C64.938 16.9868 63.8102 16.3836 62.5251 16.3836C60.4531 16.3836 58.8271 17.8261 58.8271 20.2915C58.8271 22.7568 60.4531 24.1993 62.5251 24.1993C63.8102 24.1993 64.938 23.6223 65.6986 22.2585L68.8721 23.9895C67.8492 26.245 65.515 27.5564 62.5513 27.5564Z"
            fill="#303030"
    />
    <path
            d="M75.1357 15.0985C76.1323 13.7347 77.8109 13.0265 79.9877 13.0265V16.8032C79.6468 16.777 79.3845 16.7508 79.0698 16.7508C76.8142 16.7508 75.3193 17.9835 75.3193 20.6849V27.3466H71.2278V13.2363H75.1357V15.0985Z"
            fill="#303030"
    />
    <path
            d="M88.035 13.0265C92.3362 13.0265 94.8278 15.0198 94.8278 19.2948V27.3466H90.9986V25.5894C90.238 26.8745 88.7693 27.5564 86.6974 27.5564C83.3927 27.5564 81.4257 25.7205 81.4257 23.2814C81.4257 20.7898 83.1829 19.0588 87.4842 19.0588H90.7364C90.7364 17.3016 89.6873 16.2787 87.4842 16.2787C85.9892 16.2787 84.4418 16.777 83.419 17.5901L81.9502 14.7313C83.4977 13.6297 85.7794 13.0265 88.035 13.0265ZM87.7202 24.8025C89.084 24.8025 90.2643 24.1731 90.7364 22.888V21.4455H87.93C86.0155 21.4455 85.4122 22.1536 85.4122 23.0978C85.4122 24.1206 86.2777 24.8025 87.7202 24.8025Z"
            fill="#303030"
    />
    <path
            d="M116.601 13.0265C119.958 13.0265 122.371 14.9673 122.371 19.2686V27.3466H118.28V19.8981C118.28 17.6163 117.257 16.5672 115.605 16.5672C113.769 16.5672 112.484 17.7474 112.484 20.2652V27.3466H108.392V19.8981C108.392 17.6163 107.422 16.5672 105.717 16.5672C103.907 16.5672 102.622 17.7474 102.622 20.2652V27.3466H98.5308V13.2363H102.439V14.8624C103.488 13.656 105.061 13.0265 106.871 13.0265C108.838 13.0265 110.517 13.7871 111.513 15.3345C112.641 13.892 114.477 13.0265 116.601 13.0265Z"
            fill="#303030"
    />
    <path
            d="M134.379 13.0265C138.339 13.0265 141.408 15.8591 141.408 20.2915C141.408 24.7239 138.339 27.5564 134.379 27.5564C132.491 27.5564 130.969 26.9532 129.946 25.7205V27.3466H126.039V7.88599H130.13V14.7313C131.179 13.5773 132.622 13.0265 134.379 13.0265ZM133.671 24.1993C135.716 24.1993 137.264 22.7306 137.264 20.2915C137.264 17.8523 135.716 16.3836 133.671 16.3836C131.625 16.3836 130.078 17.8523 130.078 20.2915C130.078 22.7306 131.625 24.1993 133.671 24.1993Z"
            fill="#303030"
    />
    <path d="M144.147 27.3466V7.88599H148.238V27.3466H144.147Z" fill="#303030" />
    <path
            d="M162.107 13.2363H166.041L159.667 28.2121C158.304 31.6216 156.363 32.6445 153.819 32.6445C152.376 32.6445 150.803 32.1724 149.885 31.3594L151.38 28.4481C152.009 28.9989 152.875 29.3399 153.688 29.3399C154.815 29.3399 155.445 28.8415 155.996 27.5826L156.048 27.4515L149.937 13.2363H154.16L158.12 22.8093L162.107 13.2363Z"
            fill="#303030"
    />
    <path
            d="M23.7202 9.05061C21.0333 4.5037 17.6342 2 14.1485 2C10.6628 2 7.26375 4.5037 4.57686 9.05061C2.40376 12.7266 1 17.3548 1 20.8421C1 28.0975 6.89829 34 14.1485 34C21.3987 34 27.297 28.0975 27.297 20.8421C27.297 17.3548 25.8933 12.7257 23.7202 9.04971V9.05061ZM4.57418 20.8421C4.57418 17.9933 5.81174 13.9865 7.65334 10.8712C7.65334 10.8703 7.65512 10.8685 7.65512 10.8676C7.73018 10.7406 7.92051 10.7647 7.9625 10.906C8.69789 13.391 11.106 15.1471 13.649 17.0008C16.1813 18.8472 18.7994 20.7563 19.3606 23.2305C19.802 25.178 19.3874 27.0728 18.1927 28.567C18.1873 28.5741 18.182 28.5804 18.1766 28.5875C17.2732 29.7079 15.9168 30.3687 14.4791 30.4179C14.3692 30.4215 14.2584 30.4233 14.1476 30.4233C8.86856 30.4233 4.57329 26.125 4.57329 20.8421H4.57418ZM22.53 25.4695C22.437 25.6367 22.1824 25.5607 22.1958 25.3694C22.2565 24.4779 22.1851 23.5605 21.9751 22.6368C21.1914 19.1799 18.0229 16.8702 15.2279 14.8324C12.978 13.1916 10.8522 11.6419 10.4814 9.94389C10.4787 9.93227 10.476 9.92064 10.4743 9.90991C10.0936 8.10188 11.19 6.32246 12.9521 5.76897C13.3559 5.64199 13.7562 5.57672 14.1494 5.57672C16.2886 5.57672 18.6565 7.50636 20.6446 10.8712C22.4862 13.9865 23.7237 17.9942 23.7237 20.8421C23.7237 22.5196 23.2904 24.097 22.5309 25.4695H22.53Z"
            fill="#FF6915"
    />
</svg>
